<svg width="526" height="526" viewBox="0 0 526 526" fill="none" xmlns="http://www.w3.org/2000/svg">
<path d="M228.668 41.7482C246.449 20.1258 279.551 20.1258 297.332 41.7482L329.8 81.2293C338.095 91.3161 350.407 97.2448 363.465 97.4412L414.576 98.2096C442.567 98.6305 463.206 124.51 457.388 151.894L446.763 201.895C444.049 214.669 447.09 227.991 455.078 238.322L486.344 278.762C503.468 300.909 496.102 333.18 471.065 345.705L425.349 368.573C413.669 374.416 405.15 385.099 402.052 397.786L389.93 447.445C383.291 474.641 353.467 489.003 328.065 477.237L281.682 455.753C269.832 450.265 256.168 450.265 244.318 455.753L197.935 477.237C172.533 489.003 142.709 474.641 136.07 447.445L123.948 397.786C120.85 385.099 112.331 374.416 100.651 368.573L54.9351 345.705C29.898 333.18 22.5322 300.909 39.6558 278.762L70.9222 238.322C78.9103 227.991 81.9509 214.669 79.2366 201.895L68.6125 151.894C62.794 124.51 83.4325 98.6305 111.424 98.2096L162.535 97.4412C175.593 97.2448 187.904 91.3161 196.2 81.2294L228.668 41.7482Z" fill="black"/>
<path d="M223.195 74.8112C237.596 57.2995 264.404 57.2996 278.805 74.8113L305.101 106.787C311.819 114.956 321.789 119.757 332.365 119.916L373.759 120.539C396.429 120.879 413.144 141.839 408.432 164.017L399.827 204.512C397.629 214.857 400.092 225.646 406.561 234.014L431.883 266.765C445.751 284.702 439.786 310.838 419.509 320.981L382.484 339.502C373.025 344.234 366.125 352.886 363.617 363.161L353.799 403.379C348.422 425.405 324.268 437.037 303.695 427.508L266.13 410.108C256.533 405.663 245.467 405.663 235.87 410.108L198.305 427.508C177.732 437.037 153.578 425.405 148.201 403.379L138.383 363.161C135.875 352.886 128.975 344.234 119.516 339.502L82.4911 320.981C62.214 310.838 56.2485 284.702 70.1166 266.765L95.4389 234.014C101.908 225.646 104.371 214.857 102.173 204.512L93.5683 164.017C88.856 141.839 105.571 120.879 128.241 120.539L169.635 119.916C180.211 119.757 190.181 114.956 196.899 106.787L223.195 74.8112Z" fill="#0099FF"/>
<rect x="161" y="160" width="75" height="123" rx="37.5" fill="black"/>
<path d="M277 197.5C277 176.789 293.789 160 314.5 160C335.211 160 352 176.789 352 197.5V245.5C352 266.211 335.211 283 314.5 283C293.789 283 277 266.211 277 245.5V197.5Z" fill="black"/>
<path d="M224.293 312.914C230.062 301.376 241.654 293.893 254.543 293.385C274.004 292.619 290.424 307.726 291.278 327.183L292.176 347.641C293.057 367.713 279.156 385.423 259.449 389.335C226.265 395.921 200.006 361.488 215.135 331.229L224.293 312.914Z" fill="black"/>
<path d="M195.5 172C211.792 172 223.5 185 225 201.5C225 201.5 225 211 225 221C225 231 225 240.5 225 240.5C224 252 219.977 259.42 212.306 264.747C211.375 265.393 210.367 264.063 211.013 263.132C213.847 259.051 215 257 216.5 250C216.5 250 217.5 244 217.5 238C217.5 232 217.5 229.5 217.5 229.5C217.5 229.5 218 225 217.5 211.5C217 198 204.204 185 190.259 185C179.358 185 170.071 191.908 166.536 201.585C166.439 201.851 166 201.783 166 201.5C166 185.208 179.208 172 195.5 172Z" fill="white"/>
<path d="M311.5 172C327.792 172 339.5 185 341 201.5C341 201.5 341 211 341 221C341 231 341 240.5 341 240.5C340 252 335.977 259.42 328.306 264.747C327.375 265.393 326.367 264.063 327.013 263.132C329.847 259.051 331 257 332.5 250C332.5 250 333.5 244 333.5 238C333.5 232 333.5 229.5 333.5 229.5C333.5 229.5 334 225 333.5 211.5C333 198 320.204 185 306.259 185C295.358 185 286.071 191.908 282.536 201.585C282.439 201.851 282 201.783 282 201.5C282 185.208 295.208 172 311.5 172Z" fill="white"/>
<path d="M274.473 345.881C272.806 345.222 270.951 344.946 269.033 345.161C265.653 345.54 262.782 347.365 261.039 349.913C258.76 347.816 255.567 346.671 252.178 347.051C250.262 347.266 248.51 347.945 247.033 348.958C243.86 351.124 241.961 354.826 242.407 358.805C242.535 359.945 242.849 361.006 243.313 361.991C246.096 369.897 256.934 380.731 261.909 380.173C266.747 379.63 280.016 366.094 280.987 357.766C281.221 356.703 281.292 355.599 281.164 354.459C280.719 350.48 278.045 347.291 274.473 345.881Z" fill="#0099FF"/>
</svg>
